<?xml version="1.0" encoding="utf-8"?>
<!-- Generator: Adobe Illustrator 19.0.0, SVG Export Plug-In . SVG Version: 6.00 Build 0)  -->
<svg version="1.1" id="Layer_1" xmlns="http://www.w3.org/2000/svg" xmlns:xlink="http://www.w3.org/1999/xlink" x="0px" y="0px"
	 viewBox="54 -72.9 150.5 184.9" style="enable-background:new 54 -72.9 150.5 184.9;" xml:space="preserve">
<style type="text/css">
	.st0{fill:#FFFFFF;}
</style>
<title>apple</title>
<path class="st0" d="M165.8-28.2c-15.2-1.1-28.1,8.5-35.3,8.5c-7.2,0-18.6-8.3-30.5-8c-15.7,0.2-30.2,9.1-38.2,23.2
	c-16.3,28.3-4.2,70.2,11.7,93.2c7.8,11.2,17,23.9,29.2,23.4c11.7-0.5,16.1-7.6,30.3-7.6s18.1,7.6,30.5,7.3
	c12.6-0.2,20.6-11.4,28.3-22.7c5.5-8.1,9.8-17,12.8-26.3c-0.3-0.1-24.6-9.4-24.8-37.4c-0.2-23.4,19.1-34.6,20-35.2
	C188.7-25.9,171.8-27.7,165.8-28.2"/>
<path class="st0" d="M156.4-43.3c6.5-7.8,10.8-18.7,9.6-29.5c-9.3,0.4-20.6,6.2-27.2,14c-6,6.9-11.2,18-9.8,28.6
	C139.4-29.5,150-35.5,156.4-43.3"/>
</svg>
