<svg xmlns="http://www.w3.org/2000/svg" viewBox="0 0 60.19 60.19"><title>linux.svg</title><path d="M30.1,0A30.09,30.09,0,0,0,0,30.1c0,.9.05,1.8.13,2.68,4.39-6.53,13-22.47,28.87-22.6,5.46,0,9.7,2,13.32,7.43,4,6,12.92,9,12.92,9a.82.82,0,0,1,.78.82.8.8,0,0,1-.78.79h0c-.14,0-7.68.34-10.7.8-3.87.58-5.82,5.09-5.37,8.06a17.78,17.78,0,0,0,2,6.13c1.07,2.34,1.07,5.17,1.07,7.89a25.05,25.05,0,0,1-1,7A30.1,30.1,0,0,0,30.1,0Z"/><circle cx="35.95" cy="19.94" r="1.85"/><path d="M33.81,44.53c-6.51-12.73-15.75-10.86-15-19.92a9.6,9.6,0,0,1,3.77-6.52l.44-.35a1.36,1.36,0,0,0-1-2.22,1.26,1.26,0,0,0-.43.08l-.16.06c-9.15,3.5-13.66,12.05-18,20.61-.81,1.14-1.49,2-2.06,2.74A30.11,30.11,0,0,0,30.1,60.19,31.28,31.28,0,0,0,33.47,60C37.61,56.63,36.68,50.12,33.81,44.53Z"/></svg>