<?xml version="1.0" encoding="utf-8"?>
<!-- Generator: Adobe Illustrator 19.0.0, SVG Export Plug-In . SVG Version: 6.00 Build 0)  -->
<svg version="1.1" id="Layer_1" xmlns="http://www.w3.org/2000/svg" xmlns:xlink="http://www.w3.org/1999/xlink" x="0px" y="0px"
	 viewBox="9 -10.2 60.2 60.2" style="enable-background:new 9 -10.2 60.2 60.2;" xml:space="preserve">
<style type="text/css">
	.st0{fill:#FFFFFF;}
</style>
<title>linux.svg</title>
<path class="st0" d="M39.1-10.2C22.5-10.2,9,3.3,9,19.9c0,0,0,0,0,0c0,0.9,0.1,1.8,0.1,2.7C13.5,16.1,22.1,0.1,38,0
	c5.5,0,9.7,2,13.3,7.4c4,6,12.9,9,12.9,9c0.4,0,0.8,0.4,0.8,0.8c0,0.4-0.3,0.8-0.8,0.8l0,0c-0.1,0-7.7,0.3-10.7,0.8
	c-3.9,0.6-5.8,5.1-5.4,8.1c0.3,2.1,1,4.2,2,6.1c1.1,2.3,1.1,5.2,1.1,7.9c0,2.4-0.3,4.7-1,7c15.5-6.1,23.1-23.6,17-39
	C62.6-2.7,51.5-10.2,39.1-10.2z"/>
<circle class="st0" cx="45" cy="9.8" r="1.9"/>
<path class="st0" d="M42.8,34.3c-6.5-12.7-15.8-10.9-15-19.9c0.3-2.6,1.7-5,3.8-6.5L32,7.5c0.5-0.6,0.4-1.4-0.2-1.9
	c-0.2-0.2-0.5-0.3-0.8-0.3c-0.1,0-0.3,0-0.4,0.1l-0.2,0.1c-9.1,3.5-13.7,12.1-18,20.6c-0.8,1.1-1.5,2-2.1,2.7
	C14.3,41.4,25.9,50,39.1,50c1.1,0,2.3-0.1,3.4-0.2C46.6,46.4,45.7,39.9,42.8,34.3z"/>
</svg>
