<?xml version="1.0" encoding="utf-8"?>
<!-- Generator: Adobe Illustrator 19.0.0, SVG Export Plug-In . SVG Version: 6.00 Build 0)  -->
<svg version="1.1" id="Layer_1" xmlns="http://www.w3.org/2000/svg" xmlns:xlink="http://www.w3.org/1999/xlink" x="0px" y="0px"
	 viewBox="189 -190.8 420.2 421.8" style="enable-background:new 189 -190.8 420.2 421.8;" xml:space="preserve">
<style type="text/css">
	.st0{fill:#FFFFFF;}
</style>
<title>windows</title>
<path class="st0" d="M381.4-156.9c75.4-12.3,152.4-23.1,227.8-33.9V9.3c-75.4,0-152.4,1.5-227.8,1.5L381.4-156.9L381.4-156.9z"/>
<path class="st0" d="M189-130.8c57-9.2,113.9-16.9,172.4-23.1V10.9c-58.5,0-115.4,1.5-172.4,1.5V-130.8z"/>
<path class="st0" d="M189,29.4c57,0,113.9,1.5,172.4,0v166.3c-58.5-7.7-115.4-15.4-172.4-23.1V29.4z"/>
<path class="st0" d="M381.4,30.9h227.8V231c-75.4-12.3-152.4-21.5-227.8-32.3L381.4,30.9L381.4,30.9z"/>
</svg>
