<svg xmlns="http://www.w3.org/2000/svg" viewBox="0 0 150.53 184.86"><title>apple</title><path d="M111.83,44.67c-15.21-1.13-28.13,8.5-35.33,8.5s-18.58-8.26-30.53-8c-15.69.23-30.15,9.14-38.24,23.18-16.29,28.28-4.16,70.2,11.72,93.15,7.76,11.22,17,23.85,29.18,23.39,11.71-.46,16.14-7.56,30.29-7.56s18.13,7.56,30.51,7.33c12.61-.23,20.59-11.44,28.29-22.72a101.54,101.54,0,0,0,12.81-26.29c-.28-.1-24.56-9.42-24.81-37.4-.22-23.39,19.09-34.63,20-35.18-11-16.14-27.9-17.92-33.87-18.36"/><path d="M102.44,29.51C108.9,21.7,113.25,10.82,112.06,0,102.75.37,91.5,6.2,84.83,14c-6,6.92-11.23,18-9.8,28.6,10.37.8,21-5.27,27.41-13.09"/></svg>