<?xml version="1.0" encoding="utf-8"?>
<!-- Generator: Adobe Illustrator 23.0.6, SVG Export Plug-In . SVG Version: 6.00 Build 0)  -->
<svg version="1.1" id="Layer_1" xmlns="http://www.w3.org/2000/svg" xmlns:xlink="http://www.w3.org/1999/xlink" x="0px" y="0px"
	 viewBox="0 0 22 30" style="enable-background:new 0 0 22 30;" xml:space="preserve">
<style type="text/css">
	.st0{fill-rule:evenodd;clip-rule:evenodd;fill:#B50303;}
	.st1{fill-rule:evenodd;clip-rule:evenodd;fill:#F47777;}
	.st2{fill-rule:evenodd;clip-rule:evenodd;fill:#880000;}
	.st3{enable-background:new    ;}
	.st4{fill:#FFFFFF;}
</style>
<title>PDF Icon</title>
<desc>Created with Sketch.</desc>
<g id="PDP">
	<g id="Desktop-XL-Expanded" transform="translate(-513.000000, -3576.000000)">
		<g id="Features" transform="translate(109.000000, 2200.002824)">
			<g id="Comparison-Grid" transform="translate(0.500000, 224.000000)">
				<g id="Download" transform="translate(404.000000, 1151.997176)">
					<g id="PDF-Icon">
						<g id="Group">
							<polygon class="st0" points="15.5,6 15.5,0 -0.5,0 -0.5,30 21.5,30 21.5,6 							"/>
							<g id="Corner" transform="translate(13.000000, 0.000000)">
								<polygon class="st1" points="7,6 7,4.5 5.5,4.5 5.5,3 4,3 4,1.5 2.5,1.5 2.5,0 -0.5,0 -0.5,9 8.5,9 8.5,6 								"/>
								<rect x="2.5" y="9" class="st2" width="6" height="3"/>
							</g>
						</g>
						<g class="st3">
							<path class="st4" d="M3.5,25.5v-6.3h4.4V23H5.3v2.5H3.5z M6,20.5H5.3v1.3H6V20.5z"/>
							<path class="st4" d="M8.8,25.5v-6.3h3.8v0.6h0.6v5h-0.6v0.6H8.8z M11.3,20.5h-0.6v3.8h0.6V20.5z"/>
							<path class="st4" d="M14.1,25.5v-6.3h4.4v1.3H16v1.3h1.9V23H16v2.5H14.1z"/>
						</g>
					</g>
				</g>
			</g>
		</g>
	</g>
</g>
</svg>
